<svg xmlns="http://www.w3.org/2000/svg" viewBox="0 0 187.57 48.92"><defs><style>.cls-1{fill:none}.cls-5{fill:#13225e}.cls-9{fill:#fff}</style><clipPath id="clip-path" transform="translate(0 -.72)"><path class="cls-1" d="M73.05 0H187.6v50.71H73.05z"/></clipPath><clipPath id="clip-path-2" transform="translate(0 -.72)"><path class="cls-1" d="M.04.76h48.85v48.85H.04z"/></clipPath></defs><g id="Camada_2" data-name="Camada 2"><g id="Camada_1-2" data-name="Camada 1"><g clip-path="url(#clip-path)"><path d="M89.79 15.87a9.49 9.49 0 0 1 9.49 9.49h7.25L94.46 4.45C91.89 0 87.69 0 85.12 4.45L73.05 25.36h7.25a9.49 9.49 0 0 1 9.49-9.49" transform="translate(0 -.72)" fill="#a2b738"/><path d="M99.27 25.36a9.49 9.49 0 0 1-19 0h-7.22l12.07 20.91c2.57 4.44 6.77 4.44 9.34 0l12.07-20.91z" transform="translate(0 -.72)" fill="#589f98"/><path class="cls-5" d="M121.75 42.68h.1l.06.15.24.7h2.15V28.39h-3V34l-.33-.19a4.41 4.41 0 0 0-1.89-.51c-2.53 0-4.11 2-4.11 5.21s1.5 5.21 4 5.21a3.46 3.46 0 0 0 2.74-1zm-.48-6.86v5.39l-.12.07a2.65 2.65 0 0 1-1 .23c-.84 0-2.23-.39-2.23-3 0-2.91 1.7-3.14 2.23-3.14a2.44 2.44 0 0 1 1 .23l.12.06z" transform="translate(0 -.72)"/><path class="cls-5" d="M178.53 32.79h3.03v10.02h-3.03z"/><path class="cls-5" d="M180.07 31.28c.73 0 1.6-.25 1.6-1.45a1.41 1.41 0 0 0-1.5-1.41c-1.11 0-1.7.49-1.7 1.41s.47 1.45 1.6 1.45" transform="translate(0 -.72)"/><path class="cls-5" d="M118.66 13.32v-.22h5.38v-2.65h-8.56v14.18h8.56v-2.65h-5.38v-3.45h4.03v-2.38h-4.03v-2.83z"/><path class="cls-5" d="M132.13 24.5h.11v.15l.24.71h2.15V10.2h-3v5.65l-.32-.19a4.26 4.26 0 0 0-1.9-.52c-2.53 0-4.1 2-4.1 5.21s1.49 5.21 4 5.21a3.51 3.51 0 0 0 2.74-1zm-.48-6.86V23l-.12.06a2.58 2.58 0 0 1-1 .23c-.83 0-2.22-.39-2.22-3 0-2.91 1.7-3.14 2.22-3.14a2.38 2.38 0 0 1 1 .23l.12.06z" transform="translate(0 -.72)"/><path class="cls-5" d="M136.81 14.61h3.03v10.02h-3.03z"/><path class="cls-5" d="M138.33 13.1c.73 0 1.6-.26 1.6-1.46a1.41 1.41 0 0 0-1.5-1.41c-1.11 0-1.7.49-1.7 1.41s.48 1.46 1.6 1.46m4.4 9.07c0 2.57.65 3.39 2.68 3.39A6.85 6.85 0 0 0 148 25l-.21-1.68a4.75 4.75 0 0 1-.87.09c-.36 0-1.18 0-1.18-1.26v-5h2.13v-1.8h-2.13V12.7h-2.3l-.44 2.47v.14h-.13l-1.41.38v1.49h1.3v5zm10.99 3.39c3.31 0 4.73-1.57 4.73-5.27s-1.46-5.23-4.73-5.23-4.78 1.61-4.78 5.23 1.43 5.27 4.78 5.27m0-8.66c1.36 0 1.55 1.63 1.55 3.39s-.19 3.43-1.55 3.43-1.62-1.65-1.62-3.43.2-3.39 1.62-3.39m-23.16 26.84c3.32 0 4.73-1.57 4.73-5.27s-1.46-5.23-4.73-5.23-4.77 1.61-4.77 5.23 1.43 5.27 4.77 5.27m0-8.66c1.37 0 1.56 1.63 1.56 3.39s-.19 3.43-1.56 3.43-1.56-1.65-1.56-3.43.19-3.39 1.61-3.39m17.17.92v-.07a3.5 3.5 0 0 0 2.27-3c0-2.5-1.7-3.71-5.19-3.71-1.68 0-3.34.12-3.9.17v14.2c.53 0 2.11.19 4.11.19s5.6-.53 5.6-4a4 4 0 0 0-2.89-3.78M144 35v-3.44h.18a6.15 6.15 0 0 1 .94-.06 1.75 1.75 0 0 1 2 1.86c0 1.21-.75 1.87-2.12 1.87h-1zm1.16 6.53a4.73 4.73 0 0 1-1-.09h-.17v-4.18h1a2 2 0 0 1 2.26 2.12 1.89 1.89 0 0 1-2.12 2.12m12.69-8.17a3.06 3.06 0 0 0-2.82 1.34v.14l-.4-1.27h-2.14v10h3v-7c.06-.09.54-.75 2-.75a6.59 6.59 0 0 1 1.08.12l.34-2.53a6.77 6.77 0 0 0-1-.08m10.74 8.78c-.72-.13-.72-1-.72-1.42v-3.15c0-3-.56-4.23-4-4.23a11.8 11.8 0 0 0-3.9.72l.33 2a11.84 11.84 0 0 1 2.81-.39c1.52 0 1.93.27 1.93 2.14V38h-.23s-1-.06-1.6-.06c-1.48 0-4 .4-4 3.08 0 1.78 1.25 2.72 3 2.72a3.62 3.62 0 0 0 3.09-1.34h.1a1.35 1.35 0 0 0 1.49 1.2 1.74 1.74 0 0 0 1.41-.57 1.34 1.34 0 0 0 .28-1M165 39.72v.84a2.26 2.26 0 0 1-1.77 1.14c-.7 0-1.23-.35-1.23-1 0-.37.24-1.26 1.9-1.26a6.23 6.23 0 0 1 .9 0h.2zm.63-24.59a3.07 3.07 0 0 0-2.88 1.34l-.05.14-.4-1.27h-2.13v10h3v-7c.06-.09.54-.75 2-.75a6.72 6.72 0 0 1 1.09.12l.34-2.53a7 7 0 0 0-1-.08m10.99 8.78c-.72-.13-.72-1-.72-1.42v-3.15c0-3-.56-4.23-4-4.23a11.68 11.68 0 0 0-3.91.71l.33 2a11.75 11.75 0 0 1 2.81-.39c1.52 0 1.93.27 1.93 2.14v.23h-.23s-1-.06-1.6-.06c-1.48 0-4 .4-4 3.08 0 1.78 1.25 2.72 3 2.72a3.62 3.62 0 0 0 3.09-1.34h.09a1.36 1.36 0 0 0 1.5 1.2 1.74 1.74 0 0 0 1.41-.57 1.34 1.34 0 0 0 .28-.95M173 21.52v.84a2.26 2.26 0 0 1-1.77 1.14c-.7 0-1.23-.35-1.23-1 0-.37.23-1.26 1.9-1.26a6.38 6.38 0 0 1 .9 0h.2zm1.51 15.99c-.93-.24-1.75-.52-1.75-1.25s1.16-.83 1.72-.83a7.46 7.46 0 0 1 1.81.26l.23-2a10.52 10.52 0 0 0-3-.43c-2.51 0-3.9 1.17-3.9 3.29 0 1.56.79 2.44 2.64 3 .94.28 1.83.54 1.83 1.26 0 .9-1.12.9-1.78.9a7.69 7.69 0 0 1-2.33-.46l-.29 1.9a9.83 9.83 0 0 0 3.49.65c2.53 0 4-1.23 4-3.31 0-1.54-.85-2.44-2.75-2.92m13.14 4.48c-.65 0-.93-.4-.93-1.18V28.39h-3v13c0 1.64.56 2.33 1.89 2.33a2.23 2.23 0 0 0 1.76-.63 1.46 1.46 0 0 0 .31-1.06" transform="translate(0 -.72)"/></g><path transform="rotate(-81.59 24.039 24.82)" fill="#042f5b" d="M4.19 4.92h40.53v40.53H4.19z"/><path stroke="#042f5b" stroke-miterlimit="10" stroke-width=".75" fill="none" d="M.43 42.293L6.618.43l41.865 6.189-6.19 41.865z"/><path class="cls-9" d="M5.92 11.28h9.8v1.8l-7.89 29.4 1.35.2h.6l7.84-29.41v-3.6H6.16l-.24 1.61z"/><g clip-path="url(#clip-path-2)"><path class="cls-9" d="M33.35 28.46v8c0 4.53-1.85 7.16-6.72 7.16-4.72 0-6.81-2.58-6.81-7.16V32.6h1.94v4c0 3.65 1.61 5.36 4.87 5.36 3.51 0 4.73-2 4.73-5.51v-8c0-4.34-2.34-5.41-4.78-5.41-2.28 0-4.72 1.41-4.72 5v.53H20V10.39h12.72v1.66H21.81v12.51h.05a5.46 5.46 0 0 1 5.26-3.16c3.12 0 6.23 1.56 6.23 7.06m5.25 2.11a2.05 2.05 0 0 1 2 2h1.58l-2.62-4.53a1.08 1.08 0 0 0-2 0L35 32.62h1.57a2.05 2.05 0 0 1 2.06-2m2.02 2a2.06 2.06 0 1 1-4.11 0H35l2.62 4.54a1.07 1.07 0 0 0 2 0l2.62-4.54zm1.51-10.02h-.73a1.32 1.32 0 0 1 .8 1.29c0 .93-.51 1.46-1.65 1.46H40c-1.11 0-1.4-.58-1.8-1.48s-.68-1.3-1-1.3h-.54c-.78 0-1.25.24-1.25 1a1 1 0 0 0 1.16 1.1h.68v.48h-.66A1.44 1.44 0 0 1 35 23.59c0-1.09.6-1.48 1.7-1.48h5.49zm-1.59 0h-2.73a3 3 0 0 1 .75 1.2c.34.71.58 1.09 1.41 1.09h.57c.83 0 1.24-.35 1.24-1.08a1.15 1.15 0 0 0-1.24-1.21m-3.94-4c-.83 0-1.25.36-1.25 1.08a1.15 1.15 0 0 0 1.2 1.2h5.58v.5H35v-.5h.77a1.34 1.34 0 0 1-.77-1.36c0-.91.5-1.42 1.65-1.42h5.54v.5zm3.76-4.6a1.63 1.63 0 0 1 1.84 1.71 1.62 1.62 0 0 1-1.84 1.7H36.8a1.62 1.62 0 0 1-1.8-1.72A1.62 1.62 0 0 1 36.8 14zm0 .49h-3.64c-.85 0-1.37.43-1.37 1.22s.52 1.21 1.37 1.21h3.69c.86 0 1.37-.44 1.37-1.21s-.51-1.22-1.37-1.22m.16-4.34a1.45 1.45 0 0 1 1.63 1.64 1.49 1.49 0 0 1-1.68 1.6h-.69v-.47h.71c.75 0 1.24-.35 1.24-1.13s-.41-1.16-1.18-1.16h-.23c-.55 0-.89.19-1.44.88l-.62.8c-.57.7-1 1-1.7 1h-.2A1.36 1.36 0 0 1 35 11.82a1.4 1.4 0 0 1 1.61-1.58h.55v.48h-.58c-.78 0-1.17.33-1.17 1.1a.93.93 0 0 0 1 1h.22c.51 0 .79-.2 1.31-.85l.61-.8c.66-.83 1.07-1.07 1.81-1.07z" transform="translate(0 -.72)"/></g></g></g></svg>