<svg xmlns="http://www.w3.org/2000/svg" viewBox="0 0 187.09 76.46"><g data-name="Camada 2"><g data-name="Camada 1"><path d="M132.66 10.22h3.78V29.2h-3.78zm6.86 3.94c0-3.29 2.42-4 4.29-3.94 0 0 6.95.19 8.68.42v3h-7.79c-1.41 0-1.41.75-1.41 1.45v3l8 .28v3l-8 .25v3c0 1.38.89 1.35 1.67 1.35h7.53v3c-1.52.19-8.41.44-8.41.44-1.77.07-4.56-.31-4.56-3.81zm2.26 50.11h1.75l3.35 10.06 3.25-10.06h1.73l.96 12.09h-1.27l-.77-9.88-3.23 9.88h-1.3l-3.34-9.88-.68 9.88h-1.27l.82-12.09zm-5.62-15.54l-2.62-8-2.81 8zM131 35.06h5.08l7.58 22.44h-4.76l-1.65-5h-7.65l-1.68 5h-4.82zm33.65 0h4.46V57.5h-4.46zM94 53.71c1.35 0 2.58-.61 2.58-3 0-1.64-.7-3.14-2.58-3.14h-5.11v6.14zM93.77 44a2.26 2.26 0 0 0 2.45-2.54 2.25 2.25 0 0 0-2.45-2.56h-4.88V44zm-9.36-8.89H94c4.83 0 6.59 2.77 6.59 6 0 2.06-.92 4.39-3.2 4.79 2 .34 3.57 2.21 3.57 5.06 0 4.17-2 6.59-6.87 6.59h-9.68zm29.15 10.1c1.55 0 2.29-.44 2.29-3.15 0-2.55-.89-3.18-2.29-3.18h-5.3v6.33zm-9.78-10.15H114c3.65 0 6.35 1.64 6.35 7 0 5.55-2.41 6.21-3.71 6.6l4.42 8.84h-5l-3.89-8.5-3.92-.43v8.93h-4.47zm68.87 0h4.46V52c0 1.62 1 1.6 2 1.6h8v4h-9.58c-2.54 0-4.86-.9-4.86-4.37zm-27.12 5.61c0-4.44 2.74-5.74 6.31-5.79a36.41 36.41 0 0 1 9 .89v3.37c-2-.17-6.64-.31-7.8-.31-1.95 0-3.07.09-3.07 2.18v1.1c0 1.77.71 2.16 2.51 2.16h3.69c4.57 0 5.51 3.46 5.51 5.94v1.5c0 5.09-3.3 6-6.45 6a32.35 32.35 0 0 1-9-.91v-3.35c1.27.13 5.16.34 8.12.34 1.34 0 2.87-.21 2.87-1.93v-1.21c0-1.27-.4-2.09-2.1-2.09h-3.59c-5.63 0-6-4-6-6zM84.31 66.42a1.92 1.92 0 0 1 2.16-2.15l5.43.27v.95h-5.43c-.89 0-.89.48-.89.93v3.3l5.63.17v1l-5.63.11v3.3c0 .87.56.86 1.06.86h5.26v.94l-5.26.28c-1.13.06-2.33-.22-2.33-2.08zm9.84 1.17H95l.38 1a6.49 6.49 0 0 1 3.36-1.18 2.71 2.71 0 0 1 2.82 2.81v6.11h-1.27v-6.08a1.44 1.44 0 0 0-1.55-1.59 6.88 6.88 0 0 0-3.36 1v6.75h-1.23zm9.52 2.1c0-1.36.6-2.18 2.37-2.18.89 0 3.59.18 4.48.26v.94H106c-1.1 0-1.1.42-1.1 1v.76c0 .91.46.94 1.1.94h2.71a2 2 0 0 1 2.29 2.11v.81c0 1.8-1.13 2.11-2.23 2.11-.84 0-4-.25-4.7-.31v-.91h4.7a.84.84 0 0 0 1-.89v-.81c0-.58-.2-.91-1-.91H106c-1.61 0-2.37-.46-2.37-2.16zm9.48-2.1h1.27v8.77h-1.27zm-.15-2.31a.37.37 0 0 1 .41-.41h.86a.37.37 0 0 1 .39.41v.89a.35.35 0 0 1-.39.38h-.86a.38.38 0 0 1-.41-.38zm4 2.31h.89l.38 1a6.53 6.53 0 0 1 3.36-1.18 2.71 2.71 0 0 1 2.82 2.81v6.11h-1.25v-6.08a1.44 1.44 0 0 0-1.55-1.59 6.88 6.88 0 0 0-3.36 1v6.75H117zm13.75 7.63c1.85 0 2.75-.23 2.75-3.12 0-3.14-.74-3.37-2.75-3.37S128 69 128 72.1c0 2.92 1 3.12 2.75 3.12m0-7.71c3.07 0 4 1.11 4 4.59 0 3.25-1 4.34-4 4.34s-4-1.2-4-4.34c0-3.58 1-4.59 4-4.59m29.38-3.19h1.63l-2.28 2.2h-1.19zm.06 7.12c.75 0 1.08-.27 1.08-.81 0-1.73-.34-1.88-2.2-1.88s-2.73 0-2.73 2.69zm-1.13-3.92c2.14 0 3.48.2 3.48 3.11 0 1.27-.7 2-2.35 2h-3.85c0 2.07.4 2.58 1.74 2.58a32.17 32.17 0 0 0 4.29-.16V76a16.36 16.36 0 0 1-4.29.46c-2.32 0-3-1.07-3-4.51 0-3.91 1.17-4.41 4-4.41m8.53 7.7a8.86 8.86 0 0 0 3.36-.76v-5.37a12.18 12.18 0 0 0-3.36-.43c-1.1 0-1.74.65-1.74 3.34 0 2.14.62 3.22 1.74 3.22m0-7.78a10.84 10.84 0 0 1 3.36.66V63.4h1.26v13h-.91l-.35-1a7.84 7.84 0 0 1-3.36 1.08c-2.49 0-3-2.43-3-4.44 0-2.25.41-4.56 3-4.56m7.2.11h1.27v8.77h-1.27zm-.17-2.31a.37.37 0 0 1 .41-.41h.85a.38.38 0 0 1 .4.41v.89a.35.35 0 0 1-.4.38h-.85a.38.38 0 0 1-.41-.38zm7.8 9.94c1.85 0 2.75-.23 2.75-3.12 0-3.14-.74-3.37-2.75-3.37s-2.75.22-2.75 3.37c0 2.92 1 3.12 2.75 3.12m0-7.71c3.08 0 4 1.11 4 4.59 0 3.25-.94 4.34-4 4.34s-4-1.2-4-4.34c0-3.58 1-4.59 4-4.59M84.27 15c0-3.76 2.32-4.86 5.34-4.9a31.07 31.07 0 0 1 7.63.75v2.85c-1.72-.15-5.61-.26-6.59-.26-1.65 0-2.6.08-2.6 1.84v.93c0 1.51.59 1.83 2.12 1.83h3.12C97.16 18 98 20.94 98 23v1.27c0 4.31-2.79 5.11-5.46 5.11a27.17 27.17 0 0 1-7.62-.78v-2.82c1.08.11 4.37.29 6.87.29 1.14 0 2.43-.18 2.43-1.63v-1c0-1.08-.34-1.77-1.78-1.77h-3c-4.76 0-5.1-3.38-5.1-5zm24.49-10h3.3l-3.29 3.6h-2.45zm-8.31 9.16c0-3.29 2.43-4 4.29-3.94 0 0 7 .19 8.69.42v3h-7.8c-1.4 0-1.4.75-1.4 1.45v3l8 .28v3l-8 .25v3c0 1.38.89 1.35 1.67 1.35h7.53v3c-1.53.19-8.42.44-8.42.44-1.76.07-4.56-.31-4.56-3.81zm23.66 4.65c1.32 0 2-.37 2-2.67 0-2.15-.76-2.69-2-2.69h-4.47v5.36zm-8.26-8.59h8.63c3.08 0 5.38 1.39 5.38 5.92 0 4.7-2.05 5.26-3.15 5.59l3.74 7.48h-4.25L122.94 22l-3.32-.37v7.55h-3.77z" fill="#00366a"/><path d="M44 24.59l9.84-5.46L20.47.6v10.76l21.63 12a20.07 20.07 0 0 1 1.9 1.23" fill="#ca7a1b"/><path d="M27.35 33.83L44 24.59a18.87 18.87 0 0 0-1.9-1.22l-21.63-12L0 0v64.82l25.11-13.94c-3.06-2.29-4.62-5-4.62-7.77 0-3.36 2.3-6.71 6.88-9.26" fill="#17619f"/><path d="M53.84 19.13L44 24.59c6.85 4.91 6.36 12-1.47 16.59l-.43.27-17 9.43a19.29 19.29 0 0 0 2.24 1.47l43.13 23.94V9.89z" fill="#a2b738"/><path d="M42.53 41.18l-17.44 9.68 17-9.43.43-.27" fill="#16225f"/><path d="M44 24.59l-16.65 9.24c-4.58 2.55-6.88 5.9-6.88 9.26 0 2.74 1.56 5.47 4.62 7.77l17.44-9.68c9.59-5.61 8.32-11.68 1.47-16.59" fill="#589f98"/></g></g></svg>